<svg xmlns="http://www.w3.org/2000/svg" viewBox="0 0 306.76 67.01"><defs><style>.cls-1{fill:#fff;}.cls-2{fill:#003251;}</style></defs><title>4star</title><g id="Laag_2" data-name="Laag 2"><g id="Laag_1-2" data-name="Laag 1"><polygon class="cls-1" points="22.07 41.36 8.64 28.67 26.88 25.73 34.8 9.04 43.23 25.48 61.56 27.85 48.53 40.95 51.93 59.11 35.44 50.77 19.23 59.62 22.07 41.36"/><path class="cls-2" d="M34.94,18.07l3.77,7.36,1.92,3.74,4.17.54L53,30.78l-5.83,5.86-3,3L45,43.76l1.53,8.12-7.38-3.73-3.76-1.9-3.69,2-7.26,4,1.28-8.17.64-4.15L23.29,37l-6-5.68L25.44,30l4.15-.67,1.8-3.79,3.55-7.48M34.66,0,24.17,22.12,0,26,17.79,42.82,14,67,35.51,55.29,57.35,66.34,52.84,42.28,70.11,24.93,45.83,21.78,34.66,0Z"/><polygon class="cls-1" points="100.95 41.36 87.52 28.67 105.77 25.73 113.69 9.04 122.12 25.48 140.44 27.85 127.41 40.95 130.81 59.11 114.33 50.77 98.11 59.62 100.95 41.36"/><path class="cls-2" d="M113.82,18.07l3.78,7.36,1.92,3.74,4.17.54,8.2,1.07-5.83,5.86-3,3,.78,4.14,1.52,8.12L118,48.15l-3.75-1.9-3.69,2-7.26,4,1.27-8.17.65-4.15L102.17,37l-6-5.68L104.32,30l4.16-.67,1.8-3.79,3.54-7.48M113.55,0l-10.5,22.12L78.88,26l17.8,16.81L92.91,67,114.4,55.29l21.84,11.05-4.51-24.06L149,24.93l-24.27-3.15L113.55,0Z"/><polygon class="cls-1" points="179.84 41.36 166.41 28.67 184.65 25.73 192.57 9.04 201 25.48 219.32 27.85 206.29 40.95 209.7 59.11 193.22 50.77 176.99 59.62 179.84 41.36"/><path class="cls-2" d="M192.71,18.07l3.77,7.36,1.92,3.74,4.17.54,8.2,1.07-5.83,5.86-3,3,.77,4.14,1.52,8.12-7.37-3.73-3.76-1.9-3.69,2-7.26,4,1.28-8.17.64-4.15L181.06,37l-6-5.68L183.21,30l4.15-.67,1.8-3.79,3.55-7.48M192.43,0,181.94,22.12,157.77,26l17.79,16.81L171.8,67l21.48-11.72,21.84,11.05-4.51-24.06,17.27-17.35L203.6,21.78,192.43,0Z"/><polygon class="cls-1" points="258.72 41.36 245.29 28.67 263.53 25.73 271.45 9.04 279.89 25.48 298.21 27.85 285.18 40.95 288.58 59.11 272.1 50.77 255.88 59.62 258.72 41.36"/><path class="cls-2" d="M271.59,18.07l3.78,7.36,1.92,3.74,4.17.54,8.2,1.07-5.83,5.86-3,3,.78,4.14,1.52,8.12-7.38-3.73L272,46.25l-3.69,2-7.26,4,1.27-8.17L263,39.9,259.94,37l-6-5.68L262.09,30l4.16-.67,1.8-3.79,3.54-7.48M271.31,0,260.82,22.12,236.65,26l17.8,16.81L250.68,67l21.49-11.72L294,66.34,289.5,42.28l17.26-17.35-24.27-3.15L271.31,0Z"/></g></g></svg>