<svg xmlns="http://www.w3.org/2000/svg" viewBox="0 0 1201.8 165.55"><title>Alzheimer</title><g id="Laag_2" data-name="Laag 2"><g id="Laag_1-2" data-name="Laag 1"><path d="M221,0V45.1H210.67V124h-2.78V45.1h-8.31c-.06-4-.17-7.56-.27-10.67a67.85,67.85,0,0,0-1-10.67A9,9,0,0,0,192.86,17c-2.79-1.14-7.93-1.7-15.25-1.7V8Z"/><path d="M794.26,75l-.35-20c0-1.15-.54-1.73-1.61-1.73h-.68V159.1h2.75V78.3l.13-.2-.07-3.41C794.38,74.78,794.31,74.86,794.26,75Z"/><path d="M794.43,74.69l.07,3.41a69.23,69.23,0,0,1,5.34-7.61V67.35A61,61,0,0,0,794.43,74.69Z"/><polygon points="929.06 125.04 929.06 159.1 931.81 159.1 931.81 125.08 929.06 125.04"/><path d="M84.92,7.88H82.63L77.45,19.57l2.83,0,1.66-3.74c.38-.79.7-1.53,1-2.21s.56-1.43.86-2.22c.31.79.6,1.53.86,2.22s.6,1.42,1,2.21l20,45.19,2.86,0Z"/><path d="M151.92,159.11h-2.07a1.38,1.38,0,0,1-1.37-1.09l-22.35-50.53H50.93c-2.13,4.81-4,9.16-5.52,13-1.86,4.51-3.33,8.44-4.48,11.76a59.88,59.88,0,0,0-2.4,8.43,31.61,31.61,0,0,0-.71,5.6c0,4,1.42,6.83,4.15,8.33s7.32,2.28,13.77,2.28v8.18H0v-8.18a63.3,63.3,0,0,0,9-1.76,23.05,23.05,0,0,0,6.67-3A20.42,20.42,0,0,0,20.77,147c.21-.36.49-.72.71-1.14l17.38-39.19.65-1.5,2.9.05-.06,0H125.2l0,0,2.89-.05Z"/><path d="M356,55.42l-3.26,0L318.93,99l2.16,1.39L355.9,55.62Z"/><path d="M277.2,53.24V55.4h75.6l0,0,3.26,0,.38-.56a.8.8,0,0,0,.18-.54V53.24Z"/><path d="M356.59,131.56l-3.88,33.5H270.08l7.87-9.94h26.34a182.71,182.71,0,0,0,19.4-.83,37.09,37.09,0,0,0,12.57-3.47,19.89,19.89,0,0,0,7.81-7.14A44.09,44.09,0,0,0,349,131.56Z"/><path d="M418.76,75.28V3.55H416V159.1h2.75V78.63l.09-.12V75.16Z"/><path d="M497,131.14v28h2.75v-28Z"/><path d="M507.58,90.4l-23.22.1a73.2,73.2,0,0,0-2.13-12.58v0A35.66,35.66,0,0,0,479,69.74q-6-10.24-19.94-10.25A38.5,38.5,0,0,0,442,63.37L436.16,56a50.77,50.77,0,0,1,5.68-2.8,72.14,72.14,0,0,1,12.46-4.09A55.47,55.47,0,0,1,467,47.63a53.32,53.32,0,0,1,19.4,3.42c5.91,2.33,10.44,5.44,13.67,9.32a27.4,27.4,0,0,1,4.09,7.56v0a37,37,0,0,1,1.65,5.39A90.12,90.12,0,0,1,507.58,90.4Z"/><path d="M561.14,96.23a58,58,0,0,1,4.53-17.39A41.65,41.65,0,0,1,575,65.39a39.28,39.28,0,0,1,5.27-4.15l.06-2.73A42.2,42.2,0,0,0,571,66.1a46.8,46.8,0,0,0-9.63,16.58A65.1,65.1,0,0,0,558,104a76.07,76.07,0,0,0,3.44,23.76,50.14,50.14,0,0,0,9.81,17.72,41.91,41.91,0,0,0,15.54,11.07,53.37,53.37,0,0,0,20.77,3.84,62.26,62.26,0,0,0,12.73-1.3,71,71,0,0,0,11.42-3.35,53.86,53.86,0,0,0,9.06-4.48,26.09,26.09,0,0,0,5.8-4.7l-.46-.43a1.35,1.35,0,0,0-.92-.43c-.46,0-1.47.64-3,1.94a41.29,41.29,0,0,1-6.88,4.32,58.49,58.49,0,0,1-27.71,6.26,50,50,0,0,1-19.22-3.56,40.08,40.08,0,0,1-14.8-10.42,47.25,47.25,0,0,1-9.46-17A74.35,74.35,0,0,1,560.79,104v-2.92a19.85,19.85,0,0,1,.23-2.91"/><path d="M660.09,101.22c.84-.43,1.26-1.65,1.26-3.67q0-21.17-12.16-32.52a39.16,39.16,0,0,0-14.55-8.45l-5.25,13.29c.06,0,.13.08.18.13q6.76,6,6.77,15.88a8.83,8.83,0,0,1-.46,3.14,3.38,3.38,0,0,1-1.83,1.83,12.67,12.67,0,0,1-4.13.87q-2.76.21-7.35.21h-1.89l-3.92,9.94h37.48Q658.83,101.87,660.09,101.22Z"/><path d="M722.78,13.92a5.31,5.31,0,0,1-2,4,6.51,6.51,0,0,1-4.42,1.79A6.37,6.37,0,0,1,711.83,18a5.41,5.41,0,0,1-1.89-4,5.66,5.66,0,0,1,1.89-4.26,6.36,6.36,0,0,1,4.53-1.78,6.5,6.5,0,0,1,4.42,1.78A5.54,5.54,0,0,1,722.78,13.92Z"/><path d="M723,13.92a5.31,5.31,0,0,1-2,4,6.51,6.51,0,0,1-4.42,1.79A6.37,6.37,0,0,1,712.08,18a5.42,5.42,0,0,1-1.9-4,5.67,5.67,0,0,1,1.9-4.26,6.36,6.36,0,0,1,4.53-1.78A6.5,6.5,0,0,1,721,9.66,5.54,5.54,0,0,1,723,13.92Z"/><path d="M738.52,156.7a11.65,11.65,0,0,1-6.42-4,17,17,0,0,1-3.1-8,89.79,89.79,0,0,1-.8-13.51v-.1l-22.49.32v1.3a79.32,79.32,0,0,1-.8,12.42,14.81,14.81,0,0,1-3.21,7.56,13.62,13.62,0,0,1-6.77,3.89,49.86,49.86,0,0,1-11.25,1.4v7.56h65.85V158A51.42,51.42,0,0,1,738.52,156.7Z"/><path d="M927.76,58.79l-14.81,9a14.71,14.71,0,0,0-5.85-4.89,23.34,23.34,0,0,0-10-1.92A29,29,0,0,0,882,65.25a26,26,0,0,0-2.27,1.56,30.64,30.64,0,0,0-8.85,9.75,35.45,35.45,0,0,0-1.55,3.37,20.15,20.15,0,0,0-1,3.63.44.44,0,0,1,0,.16,34.56,34.56,0,0,0-.43,4.58c-.07,1.85-.09,4.16-.09,6.91v22.42l-18-.36V96.77a125.3,125.3,0,0,0-.6-13c-.14-1.33-.3-2.6-.5-3.79a35.77,35.77,0,0,0-2.45-8.83L860,59.54a23.73,23.73,0,0,1,6.15,9.07h.72a46.06,46.06,0,0,1,12.87-10.67A40.88,40.88,0,0,1,883.36,56a48.6,48.6,0,0,1,20.73-4.5,43.8,43.8,0,0,1,15.68,2.67A27.4,27.4,0,0,1,927.76,58.79Z"/><path d="M993.18,96.23s0,0,0,0l-2.65,0a74,74,0,0,0-.45,7.85,75.78,75.78,0,0,0,3.44,23.76,50,50,0,0,0,9.81,17.72,41.83,41.83,0,0,0,15.54,11.07,53.37,53.37,0,0,0,20.77,3.84,62.33,62.33,0,0,0,12.73-1.3,71.6,71.6,0,0,0,11.42-3.35,54.24,54.24,0,0,0,9.06-4.48,26,26,0,0,0,5.79-4.7l-.46-.43a1.33,1.33,0,0,0-.91-.43c-.46,0-1.48.64-3,1.94a41.44,41.44,0,0,1-6.89,4.32,58.4,58.4,0,0,1-27.7,6.26,50,50,0,0,1-19.22-3.56,40,40,0,0,1-14.8-10.42,47.1,47.1,0,0,1-9.46-17A74.35,74.35,0,0,1,992.84,104v-2.92a18.56,18.56,0,0,1,.23-2.91h68.08v-2Z"/><path d="M1073.42,59.28l-16.94,7.51a18.38,18.38,0,0,0-1.25-1.4c-4.54-3.93-10.66-5.9-18.48-5.9-8.08,0-14.64,2.23-19.72,6.63L1004.35,59a65.2,65.2,0,0,1,10.71-5.33,69.4,69.4,0,0,1,25.36-4.56Q1061.48,49.08,1073.42,59.28Z"/><polygon points="1145.88 103.24 1144.41 103.24 1145.88 103.36 1145.88 103.24"/><polygon points="1145.89 132.24 1145.89 159.11 1143.15 159.11 1143.15 132.18 1145.89 132.24"/><path d="M1145.18,104.41c0-.36.08-.73.11-1.1h-.11Z"/><path d="M1201.8,55.29a10,10,0,0,1-3.45,8.08c-2.29,2-5.57,2.9-9.83,2.9a20.06,20.06,0,0,1-6.23-.82,34.37,34.37,0,0,1-4.49-1.87l-3.66-1.81a8.37,8.37,0,0,0-3.77-.88c-4.15,0-8.25,2.48-12.4,7.45a53.71,53.71,0,0,0-9.62,18.9,77.75,77.75,0,0,0-2.46,11.39v4.61h-2.73v-50h.65c1.1,0,1.59.63,1.59,1.76l.22,17.14h.43a54,54,0,0,1,7.43-11.85,52,52,0,0,1,9.79-9.22,47.16,47.16,0,0,1,11-5.9A32.93,32.93,0,0,1,1186,43c4.92,0,8.8,1.09,11.58,3.37A10.76,10.76,0,0,1,1201.8,55.29Z"/><rect x="1145.18" y="103.24" width="0.11" height="0.05"/></g></g></svg>