<svg xmlns="http://www.w3.org/2000/svg" viewBox="0 0 189.34 165"><defs><style>.cls-1{fill:#003251;}</style></defs><title>Profiel icoon</title><g id="Laag_2" data-name="Laag 2"><g id="Laag_1-2" data-name="Laag 1"><path class="cls-1" d="M167.85,92.09c-10.47-11-24.18-16.81-40.78-17.45a44.38,44.38,0,1,0-64.88-.06H59.46l-.6,0A61.87,61.87,0,0,0,28.92,87.13C15.73,97.23,0,117.65,0,157.5V165H189l.32-7.17C189.37,156.14,190.87,116.16,167.85,92.09ZM94.65,15A29.37,29.37,0,1,1,65.28,44.37,29.41,29.41,0,0,1,94.65,15ZM15.22,150C18.4,95.63,56.14,90,59.83,89.58H124c13.92,0,24.71,4.2,33,12.84,13.45,14,16.52,36.24,17.19,47.58Z"/></g></g></svg>