<svg xmlns="http://www.w3.org/2000/svg" viewBox="0 0 207 192.69"><defs><style>.cls-1{fill:#f6861f;}</style></defs><title>Verhaal icoon Oranje</title><g id="Laag_2" data-name="Laag 2"><g id="Laag_1-2" data-name="Laag 1"><path class="cls-1" d="M203.15,17.25c-52.38-29.2-87.33-14.15-99.65-6.58C91.18,3.1,56.23-11.95,3.85,17.25L0,19.39v173.3l10.73-5.12c17.33-8.27,67.37-28.08,90.47-20.63l2.3.74,2.3-.74c23.07-7.44,73.13,12.37,90.47,20.63L207,192.68V19.39ZM15,169.28v-141C59.61,5,87.62,18.32,96,23.64V150.71C69.9,148.1,33.05,161.71,15,169.28Zm177,0c-18.05-7.57-54.9-21.18-81-18.57v-127c8.38-5.26,36.57-18.54,81,4.62Z"/><path class="cls-1" d="M29.2,51l-2-4.59c1.23-.53,30.41-12.9,53.32-7L79.29,44.3C58,38.8,29.49,50.9,29.2,51Z"/><path class="cls-1" d="M29.2,80l-2-4.59c1.23-.53,30.41-12.9,53.32-7L79.29,73.3C58,67.8,29.49,79.9,29.2,80Z"/><path class="cls-1" d="M29.2,109l-2-4.59c1.23-.53,30.41-12.9,53.32-7l-1.25,4.84C58,96.8,29.49,108.9,29.2,109Z"/><path class="cls-1" d="M29.2,138l-2-4.59c1.23-.53,30.41-12.9,53.32-7l-1.25,4.84C58,125.8,29.49,137.9,29.2,138Z"/><path class="cls-1" d="M178.93,51c-.29-.12-28.85-12.22-50.09-6.72l-1.25-4.84c22.91-5.93,52.08,6.44,53.31,7Z"/><path class="cls-1" d="M178.93,80c-.29-.12-28.85-12.22-50.09-6.72l-1.25-4.84c22.91-5.93,52.08,6.44,53.31,7Z"/><path class="cls-1" d="M178.93,109c-.29-.12-28.85-12.22-50.09-6.72l-1.25-4.84c22.91-5.93,52.08,6.44,53.31,7Z"/><path class="cls-1" d="M178.93,138c-.29-.12-28.85-12.22-50.09-6.72l-1.25-4.84c22.91-5.93,52.08,6.44,53.31,7Z"/></g></g></svg>