<svg xmlns="http://www.w3.org/2000/svg" viewBox="0 0 207 192.69"><defs><style>.cls-1{fill:#003251;}.cls-2{fill:none;stroke:#003251;stroke-miterlimit:10;stroke-width:5px;}</style></defs><title>Verhaal icoon</title><g id="Laag_2" data-name="Laag 2"><g id="Laag_1-2" data-name="Laag 1"><path class="cls-1" d="M203.15,17.25c-52.38-29.2-87.33-14.15-99.65-6.58C91.18,3.1,56.23-11.95,3.85,17.25L0,19.39v173.3l10.73-5.12c17.33-8.27,67.37-28.08,90.47-20.63l2.3.74,2.3-.74c23.07-7.44,73.13,12.37,90.47,20.63L207,192.68V19.39ZM15,169.28v-141C59.61,5,87.62,18.32,96,23.64V150.71C69.9,148.1,33.05,161.71,15,169.28Zm177,0c-18.05-7.57-54.9-21.18-81-18.57v-127c8.38-5.26,36.57-18.54,81,4.62Z"/><path class="cls-2" d="M28.21,48.72S57.56,36.1,79.92,41.88"/><path class="cls-2" d="M28.21,77.72S57.56,65.1,79.92,70.88"/><path class="cls-2" d="M28.21,106.72S57.56,94.1,79.92,99.88"/><path class="cls-2" d="M28.21,135.72s29.35-12.62,51.71-6.84"/><path class="cls-2" d="M179.92,48.72s-29.36-12.62-51.71-6.84"/><path class="cls-2" d="M179.92,77.72s-29.36-12.62-51.71-6.84"/><path class="cls-2" d="M179.92,106.72s-29.36-12.62-51.71-6.84"/><path class="cls-2" d="M179.92,135.72s-29.36-12.62-51.71-6.84"/></g></g></svg>